<svg width="19" height="18" viewBox="0 0 19 18" fill="none" xmlns="http://www.w3.org/2000/svg">
<path d="M18.8501 13.506C18.8459 15.9857 16.835 17.999 14.363 17.999C11.8888 17.999 9.86319 15.9646 9.87161 13.4933C9.88214 10.9988 11.8888 8.99609 14.3798 9.00031C16.8519 9.00242 18.8543 11.0199 18.8501 13.506ZM14.3672 9.90356C12.3773 9.90567 10.7707 11.5138 10.7728 13.506C10.7749 15.4813 12.3858 17.0915 14.363 17.0957C16.336 17.1 17.9489 15.4834 17.9489 13.5039C17.9489 11.5096 16.3507 9.90145 14.3672 9.90356Z" fill="#425466"/>
<path d="M9.42533 8.10131C6.46267 8.10131 3.50001 8.10131 0.539456 8.10131C0.39206 8.10131 0.250981 8.08653 0.141486 7.97468C0.0109356 7.84384 -0.0332832 7.68767 0.0256752 7.5104C0.0846336 7.33313 0.210973 7.21495 0.400482 7.2065C0.758444 7.19384 1.1143 7.19806 1.47226 7.19806C7.07752 7.19806 12.6828 7.19806 18.288 7.19806C18.3638 7.19806 18.4439 7.19806 18.5176 7.21495C18.726 7.26348 18.8629 7.46397 18.8503 7.68978C18.8376 7.89449 18.6692 8.07809 18.4586 8.09075C18.2312 8.10553 18.0038 8.0992 17.7764 8.0992C14.9927 8.10131 12.209 8.10131 9.42533 8.10131Z" fill="#425466"/>
<path d="M7.66478 17.9991C6.83304 17.9991 6.00341 17.9991 5.17168 17.9991C3.90618 17.9991 2.78597 17.2351 2.31851 16.0575C2.19849 15.7558 2.14795 15.4392 2.10584 15.1184C2.03004 14.517 1.9437 13.9155 1.86158 13.3162C1.78157 12.721 1.70155 12.128 1.62154 11.5329C1.54152 10.942 1.4594 10.3511 1.37939 9.76015C1.36675 9.67362 1.35201 9.5871 1.34991 9.49846C1.34149 9.25155 1.51204 9.05106 1.74788 9.02363C1.97529 8.99619 2.19428 9.15236 2.23639 9.39083C2.28482 9.67362 2.31851 9.96064 2.35641 10.2455C2.43643 10.8407 2.51855 11.4337 2.59856 12.0288C2.67858 12.6239 2.75859 13.217 2.84071 13.8121C2.91652 14.3566 2.96495 14.9074 3.07655 15.4455C3.25974 16.3298 4.0283 16.9903 4.92742 17.079C5.09166 17.0959 5.2559 17.0959 5.42014 17.0959C7.05413 17.098 8.68602 17.0959 10.32 17.098C10.5411 17.098 10.7222 17.2457 10.7664 17.4567C10.8085 17.6614 10.7011 17.8788 10.5053 17.9569C10.4337 17.9864 10.3495 17.9991 10.2695 17.9991C9.40194 18.0012 8.53231 17.9991 7.66478 17.9991Z" fill="#425466"/>
<path d="M4.11491 6.30119C3.69167 6.30119 3.4811 5.93187 3.65587 5.62376C3.87065 5.24178 4.09596 4.86613 4.31494 4.48626C5.13615 3.07652 5.95525 1.66678 6.77646 0.259157C6.88595 0.0713327 7.06493 -0.025745 7.24391 0.00591075C7.5745 0.0628912 7.73243 0.400553 7.56397 0.696007C7.33867 1.08854 7.10915 1.47896 6.88174 1.86938C6.07527 3.25801 5.2667 4.64454 4.46023 6.03317C4.36548 6.19567 4.23493 6.29908 4.11491 6.30119Z" fill="#425466"/>
<path d="M14.8222 6.30327C14.6159 6.29694 14.4895 6.19564 14.3969 6.03525C13.8978 5.17422 13.3967 4.31318 12.8955 3.45425C12.3649 2.54257 11.8322 1.63088 11.3037 0.719193C11.1247 0.411076 11.2658 0.0776353 11.6006 0.010103C11.7817 -0.0257736 11.967 0.064973 12.0743 0.248577C12.2891 0.613673 12.5018 0.98088 12.7145 1.34809C13.5357 2.76205 14.3611 4.176 15.1844 5.59207C15.3529 5.8812 15.2286 6.20831 14.9212 6.2885C14.8833 6.29694 14.8454 6.29905 14.8222 6.30327Z" fill="#425466"/>
<path d="M13.9504 13.0481C13.9504 12.7463 13.9504 12.4614 13.9504 12.1786C13.9504 11.9 14.1378 11.6995 14.3989 11.6995C14.66 11.6995 14.8516 11.8979 14.8516 12.1744C14.8516 12.4614 14.8516 12.7484 14.8516 13.0481C15.0306 13.0481 15.2012 13.0481 15.3717 13.0481C15.4918 13.0481 15.6097 13.0481 15.7297 13.0481C15.9971 13.0481 16.1993 13.2401 16.1993 13.4955C16.1993 13.7487 15.9992 13.9492 15.7339 13.9513C15.4644 13.9534 15.1949 13.9513 14.9253 13.9513C14.9043 13.9513 14.8853 13.9534 14.8537 13.9555C14.8537 14.2404 14.8537 14.5211 14.8537 14.8018C14.8537 14.8567 14.8495 14.9136 14.8348 14.9685C14.7758 15.1817 14.5632 15.3273 14.3589 15.2977C14.1273 15.2661 13.9588 15.0846 13.9546 14.8588C13.9504 14.595 13.9525 14.3312 13.9525 14.0695C13.9525 14.0357 13.9525 13.9998 13.9525 13.9534C13.8893 13.9534 13.8346 13.9534 13.7799 13.9534C13.5419 13.9534 13.304 13.9555 13.066 13.9534C12.8028 13.9492 12.6028 13.7466 12.607 13.4912C12.6112 13.2401 12.8091 13.0502 13.0723 13.0502C13.3608 13.0481 13.6514 13.0481 13.9504 13.0481Z" fill="#425466"/>
</svg>
