<svg width="14" height="14" viewBox="0 0 14 14" fill="none" xmlns="http://www.w3.org/2000/svg">
<path d="M11.6667 5.25H6.41667C5.77233 5.25 5.25 5.77233 5.25 6.41667V11.6667C5.25 12.311 5.77233 12.8333 6.41667 12.8333H11.6667C12.311 12.8333 12.8333 12.311 12.8333 11.6667V6.41667C12.8333 5.77233 12.311 5.25 11.6667 5.25Z" stroke="#4C6FFF" strokeLinecap="round" strokeLinejoin="round"/>
<path d="M2.91669 8.74996H2.33335C2.02393 8.74996 1.72719 8.62704 1.5084 8.40825C1.2896 8.18946 1.16669 7.89271 1.16669 7.58329V2.33329C1.16669 2.02387 1.2896 1.72713 1.5084 1.50833C1.72719 1.28954 2.02393 1.16663 2.33335 1.16663H7.58335C7.89277 1.16663 8.18952 1.28954 8.40831 1.50833C8.6271 1.72713 8.75002 2.02387 8.75002 2.33329V2.91663" stroke="#4C6FFF" strokeLinecap="round" strokeLinejoin="round"/>
</svg>
