<svg width="20" height="18" viewBox="0 0 20 18" fill="none" xmlns="http://www.w3.org/2000/svg">
<path d="M16.6667 6.75H9.16667C8.24619 6.75 7.5 7.42157 7.5 8.25V15C7.5 15.8284 8.24619 16.5 9.16667 16.5H16.6667C17.5871 16.5 18.3333 15.8284 18.3333 15V8.25C18.3333 7.42157 17.5871 6.75 16.6667 6.75Z" stroke="#A3AED0" strokeLinecap="round" strokeLinejoin="round"/>
<path d="M4.1665 11.25H3.33317C2.89114 11.25 2.46722 11.092 2.15466 10.8107C1.8421 10.5294 1.6665 10.1478 1.6665 9.75V3C1.6665 2.60218 1.8421 2.22064 2.15466 1.93934C2.46722 1.65804 2.89114 1.5 3.33317 1.5H10.8332C11.2752 1.5 11.6991 1.65804 12.0117 1.93934C12.3242 2.22064 12.4998 2.60218 12.4998 3V3.75" stroke="#A3AED0" strokeLinecap="round" strokeLinejoin="round"/>
</svg>
