<?xml version="1.0" encoding="utf-8"?>
<!-- Generator: Adobe Illustrator 23.1.0, SVG Export Plug-In . SVG Version: 6.00 Build 0)  -->
<svg version="1.1" id="Layer_1" xmlns="http://www.w3.org/2000/svg" xmlns:xlink="http://www.w3.org/1999/xlink" x="0px" y="0px"
	 width="19px" height="18px" viewBox="0 0 19 18" style="enable-background:new 0 0 19 18;" xml:space="preserve">
<style type="text/css">
	.st0{fill:#425466;}
</style>
<g>
	<path class="st0" d="M7.6,9.9H7.2v3.2h2v-0.4H7.6V9.9z M12.9,16.5c0,0.5,0,0.5-0.5,0.5c-2,0-4,0-6,0c-1.5,0-3,0-4.5,0
		c-0.3,0-0.4-0.1-0.4-0.4c0-5.1,0-10.1,0-15.2C1.5,1.1,1.6,1,1.9,1c2.2,0,4.4,0,6.7,0c0.1,0,0.1,0,0.2,0v4.1H9c1.2,0,2.5,0,3.7,0
		c0.2,0,0.2,0,0.2,0.2c0,0.5,0,1.1,0,1.6c0,0.1,0,0.1,0,0.2h0.6c0,0,0-0.1,0-0.1c0-0.8,0-1.6,0-2.4c0-0.2-0.1-0.5-0.3-0.6
		C12.1,2.9,11,1.8,9.9,0.7C9.7,0.5,9.5,0.4,9.2,0.4c-2.5,0-4.9,0-7.4,0c-0.5,0-1,0.4-1,1c0,5.1,0,10.2,0,15.3c0,0.6,0.4,1,1,1
		c3.5,0,7.1,0,10.6,0c0.4,0,0.8-0.3,0.9-0.7c0.1-0.3,0.1-0.7,0.1-1h-0.6C12.9,16.1,12.9,16.3,12.9,16.5z M9.4,1
		c1.2,1.2,2.3,2.3,3.5,3.5H9.4V1z M18.1,9.1c0-0.4-0.4-0.9-0.9-0.9c-1,0-2,0-3,0c-2.8,0-5.6,0-8.4,0C5.4,8.2,5,8.6,5,9.1
		c0,1.6,0,3.3,0,4.9c0,0.4,0.4,0.9,0.9,0.9c1.9,0,3.8,0,5.7,0c1.9,0,3.8,0,5.7,0c0.5,0,0.9-0.4,0.9-0.9
		C18.1,12.3,18.1,10.7,18.1,9.1z M17.2,14.2c-3.8,0-7.6,0-11.4,0c-0.2,0-0.2-0.1-0.2-0.2c0-1.6,0-3.3,0-4.9c0-0.2,0.1-0.2,0.2-0.2
		c1.9,0,3.8,0,5.7,0c1.9,0,3.8,0,5.7,0c0.2,0,0.2,0,0.2,0.2c0,1.6,0,3.2,0,4.9C17.5,14.2,17.5,14.2,17.2,14.2z M14.7,11.5v0.4h0.9
		c0.1,0.6,0,0.7-0.5,0.9c-0.7,0.2-1.4-0.1-1.5-0.8c-0.1-0.3-0.1-0.6,0-0.9c0.1-0.5,0.5-0.8,0.9-0.8c0.5,0,0.9,0.1,1.1,0.6
		c0,0,0,0,0,0c0.1,0,0.2-0.1,0.4-0.1c-0.1-0.3-0.2-0.6-0.5-0.8c-0.9-0.5-2.1-0.1-2.4,0.9c0,0.1-0.1,0.2-0.1,0.4
		c-0.1,0.6,0.1,1.4,0.9,1.7c0.7,0.3,1.4,0.2,2-0.3c0,0,0.1-0.1,0.1-0.1c0-0.4,0-0.7,0-1.1H14.7z M11.2,9.9c-0.8,0-1.4,0.4-1.5,1.1
		c-0.1,0.3-0.1,0.6-0.1,0.9c0.1,1,1,1.6,1.9,1.3c0.7-0.2,1.1-0.8,1.2-1.6c0-0.1,0-0.3-0.1-0.4C12.5,10.4,11.9,9.9,11.2,9.9z
		 M12.2,12c-0.1,0.5-0.5,0.8-1,0.8c-0.5,0-0.9-0.3-1-0.8c0-0.1,0-0.3-0.1-0.4c0-0.2,0-0.3,0.1-0.5c0.1-0.5,0.6-0.8,1.1-0.8
		c0.5,0,0.9,0.4,1,1C12.2,11.5,12.2,11.8,12.2,12z"/>
</g>
</svg>
