<?xml version="1.0" encoding="utf-8"?>
<!-- Generator: Adobe Illustrator 23.1.0, SVG Export Plug-In . SVG Version: 6.00 Build 0)  -->
<svg version="1.1" id="Layer_1" xmlns="http://www.w3.org/2000/svg" xmlns:xlink="http://www.w3.org/1999/xlink" x="0px" y="0px"
	 viewBox="0 0 50 50" style="enable-background:new 0 0 50 50;" xml:space="preserve">
<style type="text/css">
	.st0{fill:#293447;}
</style>
<g>
	<path class="st0" d="M13,8.7c-2,1.9-3.9,3.8-5.7,5.7c-0.5,0.5-0.9,0.9-1.4,1.4c-0.8,0.8-2,0.8-2.7,0.1c-0.8-0.8-0.8-2,0-2.8
		c1.4-1.4,2.8-2.8,4.1-4.2c1.8-1.8,3.7-3.7,5.5-5.5c1.1-1.1,2.5-1.1,3.6,0c3.2,3.2,6.4,6.4,9.6,9.6c1.1,1.1,0.9,2.6-0.2,3.2
		c-0.8,0.4-1.6,0.3-2.3-0.3c-1.4-1.4-2.9-2.9-4.3-4.3c-0.9-0.9-1.9-1.9-2.9-2.9c0,0.3,0,0.5,0,0.7c0,10.9,0,21.9,0,32.8
		c0,1.4-1.2,2.2-2.3,1.7c-0.6-0.3-0.9-0.8-1-1.4c0-0.2,0-0.5,0-0.7c0-10.8,0-21.6,0-32.4C13,9.2,13,9,13,8.7z"/>
	<path class="st0" d="M37,41.4c1-1,2-2,2.9-2.9c1.4-1.4,2.8-2.9,4.3-4.3c1-1,2.5-0.8,3.1,0.4c0.3,0.6,0.3,1.2,0,1.8
		c-0.1,0.3-0.4,0.5-0.6,0.7c-3.2,3.2-6.3,6.4-9.5,9.5c-1.1,1.1-2.5,1.1-3.6,0c-3.2-3.2-6.4-6.4-9.6-9.6c-0.6-0.6-0.9-1.3-0.7-2.1
		c0.4-1.4,2.1-1.8,3.2-0.8c1.2,1.2,2.4,2.4,3.6,3.6c1.2,1.2,2.4,2.3,3.6,3.5c0-0.2,0-0.4,0-0.6c0-10.8,0-21.7,0-32.5
		c0-1.1,0.3-1.7,1.1-2c1-0.4,2.1,0.3,2.2,1.3c0,0.2,0,0.5,0,0.8c0,10.8,0,21.6,0,32.4C37,40.8,37,41,37,41.4z"/>
</g>
</svg>
