<svg width="19" height="17" viewBox="0 0 19 17" fill="none" xmlns="http://www.w3.org/2000/svg">
<g clip-path="url(#clip0_348_36655)">
<path d="M-0.000444573 8.4298C-0.000444573 6.06757 -0.000444573 3.70291 -0.000444573 1.33825C-0.000444573 0.854126 0.237968 0.518403 0.663704 0.306751C0.816969 0.231335 0.979965 0.216738 1.15026 0.216738C3.12811 0.219171 5.10839 0.219171 7.08624 0.219171C7.59226 0.219171 8.10071 0.221603 8.60673 0.216738C8.7235 0.216738 8.81351 0.25323 8.89866 0.333511C9.38035 0.783575 9.86934 1.23121 10.3535 1.67884C10.4629 1.78101 10.4629 1.78101 10.5651 1.66667C11.1855 0.95387 11.9469 0.450285 12.8568 0.199708C14.5038 -0.252788 15.9999 0.0707712 17.3088 1.16552C18.187 1.90022 18.7247 2.849 18.9193 3.97538C19.1309 5.19177 18.9144 6.33518 18.2478 7.37641C17.4912 8.55874 16.4086 9.27154 15.0341 9.53915C14.6279 9.61943 14.2143 9.64132 13.8007 9.5951C13.6742 9.5805 13.6547 9.62916 13.6547 9.74107C13.6572 11.6459 13.6572 13.5532 13.6572 15.4581C13.6572 15.677 13.6207 15.8863 13.5088 16.0785C13.285 16.4604 12.9492 16.655 12.5065 16.655C10.7914 16.6575 9.07625 16.655 7.36114 16.655C5.28842 16.655 3.21812 16.655 1.14539 16.655C0.573691 16.655 0.123627 16.2901 0.0117193 15.7427C-0.00774291 15.6503 -0.00287735 15.5578 -0.00287735 15.463C-0.000444573 13.1178 -0.000444573 10.7726 -0.000444573 8.4298ZM11.8399 8.31059C11.8788 8.34222 11.891 8.35438 11.9056 8.36168C12.8471 8.95285 13.8664 9.1572 14.9563 8.96258C15.8759 8.79715 16.6495 8.36168 17.2844 7.67321C18.1724 6.70983 18.5398 5.57615 18.3816 4.28434C18.2454 3.14094 17.7126 2.19215 16.7955 1.48422C15.6472 0.598684 14.3578 0.372436 12.9711 0.764113C12.0515 1.02442 11.3168 1.57423 10.7597 2.35029C10.2245 3.09472 9.95935 3.92673 9.97151 4.84388C9.97395 5.03851 9.86204 5.15771 9.65282 5.16258C9.33169 5.16744 9.013 5.16744 8.69187 5.16501C8.48995 5.16258 8.38048 5.0458 8.37318 4.84388C8.37075 4.79523 8.37318 4.74657 8.37318 4.69792C8.37318 3.45233 8.37318 2.20918 8.37318 0.963601C8.37318 0.790874 8.37318 0.790874 8.19802 0.790874C7.1203 0.790874 6.04014 0.790874 4.96242 0.790874C3.69251 0.790874 2.42504 0.790874 1.15513 0.790874C0.860759 0.790874 0.656406 0.944139 0.588288 1.20931C0.568826 1.2823 0.573691 1.35528 0.573691 1.42583C0.573691 6.10163 0.573691 10.775 0.573691 15.4508C0.573691 15.8546 0.795074 16.0785 1.19648 16.076C1.77548 16.0736 2.35449 16.0736 2.93592 16.0663C3.64872 16.0566 4.36153 16.0614 5.07676 16.0712C5.82606 16.0833 6.57536 16.0785 7.32708 16.0663C8.07638 16.0541 8.82568 16.0614 9.5774 16.0712C10.5627 16.0833 11.548 16.0663 12.5332 16.0614C12.7887 16.059 12.976 15.9252 13.0514 15.6989C13.0782 15.6162 13.0757 15.5311 13.0757 15.4459C13.0757 14.1979 13.0757 12.9523 13.0757 11.7043C13.0757 11.0061 13.0757 10.3103 13.0782 9.61213C13.0782 9.51482 13.049 9.4686 12.9517 9.44184C12.6135 9.35426 12.2875 9.23018 11.9786 9.06476C11.8521 8.99664 11.728 8.92122 11.5723 8.83121C11.6477 9.02096 11.711 9.17666 11.7693 9.33479C11.8302 9.50266 11.7669 9.66322 11.6185 9.72161C11.4628 9.78486 11.3071 9.71674 11.2366 9.54401C11.0468 9.07449 10.857 8.60496 10.6722 8.133C10.5894 7.91892 10.7159 7.73402 10.9422 7.73159C11.4482 7.72916 11.9567 7.73159 12.4627 7.73403C12.65 7.73403 12.7741 7.85323 12.7765 8.01866C12.7765 8.19382 12.6549 8.30573 12.4578 8.30816C12.2608 8.31303 12.0686 8.31059 11.8399 8.31059ZM8.95705 1.16552C8.94732 1.20201 8.94488 1.20931 8.94488 1.21661C8.94488 2.30163 8.94488 3.38908 8.94488 4.4741C8.94488 4.54222 8.96921 4.59574 9.03976 4.57628C9.15653 4.54708 9.3098 4.66629 9.39495 4.49843C9.39981 4.4887 9.39738 4.4741 9.39981 4.46194C9.40954 4.37436 9.41684 4.28434 9.429 4.19676C9.52145 3.53991 9.72824 2.92199 10.0713 2.35029C10.115 2.2773 10.1102 2.22865 10.0445 2.17513C9.96908 2.11431 9.89853 2.04862 9.82798 1.9805C9.54091 1.71533 9.25628 1.44529 8.95705 1.16552Z" fill="#425466"/>
<path d="M6.60273 7.41264C5.76099 7.41264 4.91681 7.41264 4.07507 7.41264C4.00695 7.41264 3.9364 7.41507 3.87315 7.37858C3.76611 7.32019 3.71259 7.23261 3.72232 7.11097C3.73205 6.9869 3.79773 6.89932 3.91694 6.85796C3.97289 6.8385 4.02885 6.8385 4.0848 6.8385C5.76342 6.8385 7.43961 6.8385 9.11822 6.8385C9.16688 6.8385 9.21554 6.8385 9.26176 6.85066C9.40286 6.88716 9.49287 7.02096 9.47584 7.16206C9.45881 7.30316 9.35177 7.40291 9.20337 7.40777C8.97712 7.41264 8.74844 7.41021 8.52219 7.41021C7.88237 7.41264 7.24255 7.41264 6.60273 7.41264Z" fill="#425466"/>
<path d="M6.60263 12.2028C5.75116 12.2028 4.89968 12.2028 4.05064 12.2028C3.84629 12.2028 3.72709 12.1006 3.72465 11.923C3.72222 11.7673 3.82196 11.6506 3.97523 11.6311C4.02388 11.6262 4.07254 11.6287 4.1212 11.6287C5.77548 11.6287 7.42734 11.6287 9.08163 11.6287C9.11812 11.6287 9.15461 11.6287 9.1911 11.6311C9.36383 11.6408 9.48304 11.7649 9.47817 11.9303C9.47331 12.086 9.35167 12.2028 9.18137 12.2028C8.47587 12.2052 7.77036 12.2028 7.06729 12.2028C6.90916 12.2028 6.75589 12.2028 6.60263 12.2028Z" fill="#425466"/>
<path d="M6.61227 14.0128C7.46374 14.0128 8.31521 14.0128 9.16425 14.0128C9.29562 14.0128 9.3905 14.0615 9.44646 14.1831C9.49511 14.2902 9.47565 14.3899 9.40753 14.4799C9.33941 14.5675 9.2421 14.587 9.13506 14.587C8.49767 14.587 7.86272 14.587 7.22533 14.587C6.17923 14.587 5.13314 14.587 4.08947 14.587C4.03839 14.587 3.98243 14.587 3.93378 14.5724C3.78538 14.5335 3.7051 14.4118 3.72456 14.261C3.74159 14.1247 3.85349 14.0201 3.99946 14.0177C4.35951 14.0128 4.722 14.0153 5.08205 14.0153C5.59293 14.0104 6.10138 14.0104 6.61227 14.0128Z" fill="#425466"/>
<path d="M6.60483 9.22506C7.45144 9.22506 8.29804 9.22506 9.14465 9.22506C9.3417 9.22506 9.47308 9.33697 9.47794 9.5024C9.48037 9.67513 9.349 9.7919 9.14465 9.7919C7.75553 9.7919 6.36642 9.7919 4.97487 9.7919C4.65861 9.7919 4.34235 9.7919 4.02609 9.78947C3.90445 9.78947 3.80227 9.74081 3.74875 9.62404C3.70496 9.52673 3.70982 9.42698 3.77551 9.33454C3.84363 9.23966 3.94094 9.21533 4.05285 9.21533C4.90432 9.21776 5.75336 9.21533 6.60483 9.21533C6.60483 9.2202 6.60483 9.22263 6.60483 9.22506Z" fill="#425466"/>
<path d="M13.9009 3.62969C13.9009 3.15044 13.9009 2.67361 13.9009 2.19435C13.9009 2.14083 13.9009 2.08731 13.9106 2.03622C13.9374 1.88296 14.0639 1.77592 14.2074 1.78565C14.3485 1.79295 14.4677 1.91215 14.4847 2.06298C14.4896 2.10677 14.4872 2.153 14.4872 2.19679C14.4872 3.04826 14.4872 3.89973 14.4872 4.74877C14.4872 4.9142 14.4896 4.9142 14.6575 4.9142C15.0905 4.9142 15.5235 4.9142 15.959 4.9142C16.1123 4.9142 16.2145 4.98962 16.2534 5.12099C16.2899 5.24263 16.2558 5.3448 16.1585 5.42508C16.1074 5.46887 16.0442 5.4859 15.9785 5.4859C15.3873 5.4859 14.7961 5.48834 14.2025 5.4859C14.0371 5.4859 13.9422 5.39589 13.9155 5.23046C13.8887 5.05773 13.9033 4.88257 13.9033 4.70741C13.896 4.3498 13.8984 3.98974 13.9009 3.62969Z" fill="#425466"/>
<path d="M2.42804 14.0128C2.48157 14.0128 2.53265 14.0079 2.58618 14.0128C2.72971 14.0274 2.83675 14.1442 2.83675 14.2901C2.83918 14.4385 2.73944 14.5651 2.59591 14.5772C2.484 14.587 2.36966 14.587 2.25775 14.5772C2.11178 14.5651 1.99988 14.424 2.00717 14.2828C2.01447 14.1369 2.13125 14.0201 2.28208 14.0104C2.33073 14.0104 2.37939 14.0128 2.42804 14.0128Z" fill="#425466"/>
<path d="M2.4232 12.2003C2.37455 12.2003 2.32589 12.2028 2.27723 12.2003C2.13613 12.1906 2.03152 12.0909 2.01693 11.9571C2.00233 11.8111 2.07775 11.6846 2.21641 11.6481C2.35508 11.6116 2.49862 11.6165 2.63729 11.6432C2.77109 11.67 2.85137 11.8062 2.83677 11.9498C2.82461 12.0763 2.72243 12.1833 2.5935 12.1955C2.53754 12.2052 2.47915 12.2003 2.4232 12.2003Z" fill="#425466"/>
<path d="M2.42779 7.41017C2.37914 7.41017 2.33048 7.4126 2.28183 7.41017C2.1237 7.40044 2.02152 7.29097 2.01909 7.13283C2.01665 6.97714 2.1164 6.8555 2.26966 6.84333C2.37427 6.83603 2.48131 6.8336 2.58349 6.84333C2.74162 6.85793 2.8438 6.98687 2.8365 7.145C2.8292 7.29826 2.72216 7.40287 2.5616 7.41017C2.51781 7.4126 2.47158 7.41017 2.42779 7.41017Z" fill="#425466"/>
<path d="M2.44237 9.22021C2.48373 9.22021 2.52265 9.21777 2.56401 9.22021C2.71484 9.2275 2.82675 9.33455 2.83648 9.47808C2.84621 9.63378 2.75376 9.76515 2.60293 9.78218C2.48616 9.79435 2.36695 9.79435 2.25018 9.78462C2.11881 9.77245 2.01177 9.63865 2.0142 9.51458C2.01663 9.36861 2.10665 9.25427 2.24775 9.23237C2.311 9.22264 2.37668 9.22264 2.44237 9.21777V9.22021Z" fill="#425466"/>
</g>
<defs>
<clipPath id="clip0_348_36655">
<rect width="19" height="16.6524" fill="white"/>
</clipPath>
</defs>
</svg>
