<svg width="44" height="44" viewBox="0 0 44 44" fill="none" xmlns="http://www.w3.org/2000/svg">
<path d="M30.0004 31V29C30.0004 27.9391 29.579 26.9217 28.8288 26.1716C28.0787 25.4214 27.0613 25 26.0004 25H18.0004C16.9395 25 15.9221 25.4214 15.172 26.1716C14.4218 26.9217 14.0004 27.9391 14.0004 29V31M43 22C43 33.598 33.598 43 22 43C10.402 43 1 33.598 1 22C1 10.402 10.402 1 22 1C33.598 1 43 10.402 43 22ZM25.9996 17C25.9996 19.2091 24.2087 21 21.9996 21C19.7905 21 17.9996 19.2091 17.9996 17C17.9996 14.7909 19.7905 13 21.9996 13C24.2087 13 25.9996 14.7909 25.9996 17Z" stroke="#CFD4E4" stroke-linecap="round" stroke-linejoin="round"/>
</svg>
