<svg width="15" height="15" viewBox="0 0 15 15" fill="none" xmlns="http://www.w3.org/2000/svg">
<path d="M10.625 13.125V11.875C10.625 11.212 10.3616 10.5761 9.89277 10.1072C9.42393 9.63839 8.78804 9.375 8.125 9.375H3.125C2.46196 9.375 1.82607 9.63839 1.35723 10.1072C0.888392 10.5761 0.625 11.212 0.625 11.875V13.125" stroke="#425466" strokeLinecap="round" strokeLinejoin="round"/>
<path d="M5.625 6.875C7.00571 6.875 8.125 5.75571 8.125 4.375C8.125 2.99429 7.00571 1.875 5.625 1.875C4.24429 1.875 3.125 2.99429 3.125 4.375C3.125 5.75571 4.24429 6.875 5.625 6.875Z" stroke="#425466" strokeLinecap="round" strokeLinejoin="round"/>
<path d="M14.375 13.125V11.875C14.3746 11.3211 14.1902 10.783 13.8509 10.3452C13.5115 9.9074 13.0363 9.59472 12.5 9.45624" stroke="#425466" strokeLinecap="round" strokeLinejoin="round"/>
<path d="M10 1.95624C10.5378 2.09393 11.0144 2.40668 11.3548 2.84518C11.6951 3.28369 11.8799 3.82301 11.8799 4.37811C11.8799 4.93322 11.6951 5.47254 11.3548 5.91104C11.0144 6.34955 10.5378 6.6623 10 6.79999" stroke="#425466" strokeLinecap="round" strokeLinejoin="round"/>
</svg>
